<svg width="50" height="50" viewBox="0 0 50 50" fill="none" xmlns="http://www.w3.org/2000/svg">
<g clip-path="url(#clip0)">
<path d="M1 25C1 11.7452 11.7452 1 25 1C38.2548 1 49 11.7452 49 25C49 38.2548 38.2548 49 25 49C11.7452 49 1 38.2548 1 25Z" fill="#D5E6FB"/>
<path fill-rule="evenodd" clip-rule="evenodd" d="M43.6667 50V45.3333C43.6667 40.1787 39.488 36 34.3334 36H15.6667C10.512 36 6.33337 40.1787 6.33337 45.3333V50" fill="#2F80ED"/>
<path d="M43.6667 50V45.3333C43.6667 40.1787 39.488 36 34.3334 36H15.6667C10.512 36 6.33337 40.1787 6.33337 45.3333V50" stroke="#2F80ED" stroke-width="2" stroke-linecap="round" stroke-linejoin="round"/>
<path fill-rule="evenodd" clip-rule="evenodd" d="M25 26.6667C30.1546 26.6667 34.3333 22.488 34.3333 17.3333C34.3333 12.1787 30.1546 8 25 8C19.8453 8 15.6666 12.1787 15.6666 17.3333C15.6666 22.488 19.8453 26.6667 25 26.6667Z" fill="#2F80ED" stroke="#2F80ED" stroke-width="2" stroke-linecap="round" stroke-linejoin="round"/>
</g>
<path d="M25 48.5C12.0213 48.5 1.5 37.9787 1.5 25H0.5C0.5 38.531 11.469 49.5 25 49.5V48.5ZM48.5 25C48.5 37.9787 37.9787 48.5 25 48.5V49.5C38.531 49.5 49.5 38.531 49.5 25H48.5ZM25 1.5C37.9787 1.5 48.5 12.0213 48.5 25H49.5C49.5 11.469 38.531 0.5 25 0.5V1.5ZM25 0.5C11.469 0.5 0.5 11.469 0.5 25H1.5C1.5 12.0213 12.0213 1.5 25 1.5V0.5Z" fill="#2F80ED"/>
<defs>
<clipPath id="clip0">
<path d="M1 25C1 11.7452 11.7452 1 25 1C38.2548 1 49 11.7452 49 25C49 38.2548 38.2548 49 25 49C11.7452 49 1 38.2548 1 25Z" fill="white"/>
</clipPath>
</defs>
</svg>
